<svg width="69" height="68" viewBox="0 0 69 68" fill="none" xmlns="http://www.w3.org/2000/svg">
<g filter="url(#filter0_d_314_1355)">
<g filter="url(#filter1_i_314_1355)">
<path d="M62.3127 22.3796C62.3719 22.0446 62.4028 21.7 62.4028 21.3482C62.4028 18.0579 59.701 15.3905 56.3683 15.3905C53.8906 15.3905 51.7617 16.8647 50.8324 18.9731C50.0795 18.3313 49.1025 17.9438 48.0349 17.9438C45.6543 17.9438 43.7245 19.8703 43.7245 22.2466C43.7245 22.379 43.7305 22.5099 43.7422 22.6392C42.5972 23.1929 41.8088 24.3547 41.8088 25.6983C41.8088 27.5786 43.3526 29.1028 45.2571 29.1028H61.5407C63.4452 29.1028 64.989 27.5786 64.989 25.6983C64.989 24.0802 63.8455 22.7257 62.3127 22.3796Z" fill="url(#paint0_linear_314_1355)"/>
</g>
<g filter="url(#filter2_i_314_1355)">
<path d="M56.5005 33.1838C56.5005 42.8305 48.7534 50.6506 39.1969 50.6506C29.6404 50.6506 21.8933 42.8305 21.8933 33.1838C21.8933 23.5371 29.6404 15.717 39.1969 15.717C48.7534 15.717 56.5005 23.5371 56.5005 33.1838Z" fill="url(#paint1_linear_314_1355)"/>
</g>
<g filter="url(#filter3_i_314_1355)">
<path d="M34.9762 43.4073C35.0632 42.9163 35.1086 42.4111 35.1086 41.8956C35.1086 37.0724 31.1389 33.1625 26.2421 33.1625C22.6018 33.1625 19.4738 35.3234 18.1083 38.4139C17.0021 37.4732 15.5667 36.9052 13.998 36.9052C10.5003 36.9052 7.66486 39.7291 7.66486 43.2125C7.66486 43.4064 7.67365 43.5984 7.69086 43.7879C6.00852 44.5995 4.85012 46.3026 4.85012 48.2721C4.85012 51.0282 7.11848 53.2625 9.91665 53.2625H33.8419C36.6401 53.2625 38.9084 51.0282 38.9084 48.2721C38.9084 45.9001 37.2283 43.9146 34.9762 43.4073Z" fill="url(#paint2_linear_314_1355)"/>
</g>
</g>
<defs>
<filter id="filter0_d_314_1355" x="-2.5" y="0.5" width="75" height="75" filterUnits="userSpaceOnUse" color-interpolation-filters="sRGB">
<feFlood flood-opacity="0" result="BackgroundImageFix"/>
<feColorMatrix in="SourceAlpha" type="matrix" values="0 0 0 0 0 0 0 0 0 0 0 0 0 0 0 0 0 0 127 0" result="hardAlpha"/>
<feOffset dy="4"/>
<feGaussianBlur stdDeviation="2"/>
<feComposite in2="hardAlpha" operator="out"/>
<feColorMatrix type="matrix" values="0 0 0 0 0 0 0 0 0 0 0 0 0 0 0 0 0 0 0.25 0"/>
<feBlend mode="normal" in2="BackgroundImageFix" result="effect1_dropShadow_314_1355"/>
<feBlend mode="normal" in="SourceGraphic" in2="effect1_dropShadow_314_1355" result="shape"/>
</filter>
<filter id="filter1_i_314_1355" x="41.8088" y="15.3905" width="23.1802" height="23.7123" filterUnits="userSpaceOnUse" color-interpolation-filters="sRGB">
<feFlood flood-opacity="0" result="BackgroundImageFix"/>
<feBlend mode="normal" in="SourceGraphic" in2="BackgroundImageFix" result="shape"/>
<feColorMatrix in="SourceAlpha" type="matrix" values="0 0 0 0 0 0 0 0 0 0 0 0 0 0 0 0 0 0 127 0" result="hardAlpha"/>
<feOffset dy="11"/>
<feGaussianBlur stdDeviation="5"/>
<feComposite in2="hardAlpha" operator="arithmetic" k2="-1" k3="1"/>
<feColorMatrix type="matrix" values="0 0 0 0 1 0 0 0 0 1 0 0 0 0 1 0 0 0 1 0"/>
<feBlend mode="normal" in2="shape" result="effect1_innerShadow_314_1355"/>
</filter>
<filter id="filter2_i_314_1355" x="21.8933" y="15.717" width="34.6072" height="39.9337" filterUnits="userSpaceOnUse" color-interpolation-filters="sRGB">
<feFlood flood-opacity="0" result="BackgroundImageFix"/>
<feBlend mode="normal" in="SourceGraphic" in2="BackgroundImageFix" result="shape"/>
<feColorMatrix in="SourceAlpha" type="matrix" values="0 0 0 0 0 0 0 0 0 0 0 0 0 0 0 0 0 0 127 0" result="hardAlpha"/>
<feOffset dy="5"/>
<feGaussianBlur stdDeviation="9"/>
<feComposite in2="hardAlpha" operator="arithmetic" k2="-1" k3="1"/>
<feColorMatrix type="matrix" values="0 0 0 0 1 0 0 0 0 1 0 0 0 0 1 0 0 0 0.81 0"/>
<feBlend mode="normal" in2="shape" result="effect1_innerShadow_314_1355"/>
</filter>
<filter id="filter3_i_314_1355" x="4.8501" y="33.1625" width="34.0583" height="30.1" filterUnits="userSpaceOnUse" color-interpolation-filters="sRGB">
<feFlood flood-opacity="0" result="BackgroundImageFix"/>
<feBlend mode="normal" in="SourceGraphic" in2="BackgroundImageFix" result="shape"/>
<feColorMatrix in="SourceAlpha" type="matrix" values="0 0 0 0 0 0 0 0 0 0 0 0 0 0 0 0 0 0 127 0" result="hardAlpha"/>
<feOffset dy="11"/>
<feGaussianBlur stdDeviation="5"/>
<feComposite in2="hardAlpha" operator="arithmetic" k2="-1" k3="1"/>
<feColorMatrix type="matrix" values="0 0 0 0 1 0 0 0 0 1 0 0 0 0 1 0 0 0 1 0"/>
<feBlend mode="normal" in2="shape" result="effect1_innerShadow_314_1355"/>
</filter>
<linearGradient id="paint0_linear_314_1355" x1="43.2831" y1="27.8785" x2="66.6089" y2="10.3735" gradientUnits="userSpaceOnUse">
<stop stop-color="white"/>
<stop offset="1" stop-color="white" stop-opacity="0.58"/>
</linearGradient>
<linearGradient id="paint1_linear_314_1355" x1="36.5685" y1="42.6911" x2="51.0084" y2="17.6025" gradientUnits="userSpaceOnUse">
<stop stop-color="#FF9900"/>
<stop offset="1" stop-color="#FFEE94"/>
</linearGradient>
<linearGradient id="paint2_linear_314_1355" x1="7.01637" y1="51.4678" x2="41.2306" y2="25.7314" gradientUnits="userSpaceOnUse">
<stop stop-color="#E3E3E1"/>
<stop offset="1" stop-color="#FCFCFC"/>
</linearGradient>
</defs>
</svg>
