<svg width="204" height="167" viewBox="0 0 204 167" fill="none" xmlns="http://www.w3.org/2000/svg">
<g filter="url(#filter0_i_303_728)">
<path d="M96.4934 94C93.9316 97.3605 90.3451 104.082 96.4934 104.082C102.642 104.082 99.0552 97.3605 96.4934 94Z" fill="#507CB1"/>
</g>
<g filter="url(#filter1_i_303_728)">
<path d="M83.3948 87.5C80.833 90.8605 77.2465 97.5815 83.3948 97.5815C89.5431 97.5815 85.9566 90.8605 83.3948 87.5Z" fill="#507CB1"/>
</g>
<g filter="url(#filter2_f_303_728)">
<rect x="77.3181" y="81.9456" width="49.379" height="7.2011" rx="3.60055" fill="#FFED8D"/>
</g>
<g filter="url(#filter3_i_303_728)">
<path d="M124.29 91.4249H118.623L120.926 85.5H111.165L107.29 95.8413H114.94L111.398 110L124.29 91.4249Z" fill="url(#paint0_linear_303_728)"/>
</g>
<g filter="url(#filter4_i_303_728)">
<path d="M92.3259 42.0872C92.3629 41.8674 92.3822 41.6412 92.3822 41.4103C92.3822 39.2507 90.6922 37.5 88.6074 37.5C87.0576 37.5 85.7259 38.4676 85.1446 39.8514C84.6736 39.4302 84.0625 39.1759 83.3946 39.1759C81.9055 39.1759 80.6983 40.4403 80.6983 42C80.6983 42.0869 80.7021 42.1728 80.7094 42.2576C79.9932 42.6211 79.5 43.3836 79.5 44.2655C79.5 45.4996 80.4657 46.5 81.657 46.5H91.843C93.0343 46.5 94 45.4996 94 44.2655C94 43.2034 93.2847 42.3144 92.3259 42.0872Z" fill="url(#paint1_linear_303_728)"/>
</g>
<g filter="url(#filter5_i_303_728)">
<path d="M127.38 66.3781C127.548 65.4253 127.636 64.4452 127.636 63.4448C127.636 54.0865 119.944 46.5 110.455 46.5C103.4 46.5 97.3386 50.6928 94.6925 56.6894C92.5488 54.8641 89.7671 53.7621 86.7273 53.7621C79.9492 53.7621 74.4545 59.2412 74.4545 66C74.4545 66.3764 74.4716 66.7488 74.5049 67.1165C71.2448 68.6913 69 71.9957 69 75.8172C69 81.1649 73.3957 85.5 78.8182 85.5H125.182C130.604 85.5 135 81.1649 135 75.8172C135 71.2148 131.744 67.3624 127.38 66.3781Z" fill="url(#paint2_linear_303_728)"/>
</g>
<g filter="url(#filter6_i_303_728)">
<path d="M137.591 41.5138C137.591 42.1935 137.532 42.8595 137.42 43.5069C140.329 44.1757 142.5 46.7934 142.5 49.9207C142.5 53.5543 139.57 56.5 135.955 56.5H126.132C123.442 50.6047 117.435 46.5 110.455 46.5C105.866 46.5 101.698 48.2736 98.6166 51.1635C98.5401 50.761 98.5 50.3456 98.5 49.9207C98.5 47.324 99.9965 45.0787 102.17 44.0086C102.148 43.7588 102.136 43.5057 102.136 43.25C102.136 38.6575 105.799 34.9345 110.318 34.9345C112.345 34.9345 114.199 35.6833 115.628 36.9236C117.392 32.8489 121.433 30 126.136 30C132.463 30 137.591 35.1549 137.591 41.5138Z" fill="url(#paint3_linear_303_728)"/>
</g>
<g filter="url(#filter7_i_303_728)">
<path d="M104.697 37.2073C105.552 35.0831 106.678 33.0553 108.059 31.1802C104.369 31.5924 100.69 32.7606 97.2544 34.7442C89.7763 39.0617 85.0681 46.3069 83.7899 54.1147C84.731 53.8842 85.7148 53.762 86.7273 53.762C89.7671 53.762 92.5488 54.864 94.6924 56.6893C95.6176 54.5928 96.9601 52.7168 98.6166 51.1634C98.5401 50.7609 98.5 50.3455 98.5 49.9206C98.5 47.3239 99.9965 45.0786 102.17 44.0085C102.148 43.7587 102.136 43.5056 102.136 43.2499C102.136 40.8697 103.12 38.7231 104.697 37.2073Z" fill="url(#paint4_linear_303_728)"/>
</g>
<defs>
<filter id="filter0_i_303_728" x="93.0986" y="94" width="6.78961" height="13.0815" filterUnits="userSpaceOnUse" color-interpolation-filters="sRGB">
<feFlood flood-opacity="0" result="BackgroundImageFix"/>
<feBlend mode="normal" in="SourceGraphic" in2="BackgroundImageFix" result="shape"/>
<feColorMatrix in="SourceAlpha" type="matrix" values="0 0 0 0 0 0 0 0 0 0 0 0 0 0 0 0 0 0 127 0" result="hardAlpha"/>
<feOffset dy="9"/>
<feGaussianBlur stdDeviation="1.5"/>
<feComposite in2="hardAlpha" operator="arithmetic" k2="-1" k3="1"/>
<feColorMatrix type="matrix" values="0 0 0 0 1 0 0 0 0 1 0 0 0 0 1 0 0 0 0.21 0"/>
<feBlend mode="normal" in2="shape" result="effect1_innerShadow_303_728"/>
</filter>
<filter id="filter1_i_303_728" x="80" y="87.5" width="6.78961" height="13.0815" filterUnits="userSpaceOnUse" color-interpolation-filters="sRGB">
<feFlood flood-opacity="0" result="BackgroundImageFix"/>
<feBlend mode="normal" in="SourceGraphic" in2="BackgroundImageFix" result="shape"/>
<feColorMatrix in="SourceAlpha" type="matrix" values="0 0 0 0 0 0 0 0 0 0 0 0 0 0 0 0 0 0 127 0" result="hardAlpha"/>
<feOffset dy="9"/>
<feGaussianBlur stdDeviation="1.5"/>
<feComposite in2="hardAlpha" operator="arithmetic" k2="-1" k3="1"/>
<feColorMatrix type="matrix" values="0 0 0 0 1 0 0 0 0 1 0 0 0 0 1 0 0 0 0.21 0"/>
<feBlend mode="normal" in2="shape" result="effect1_innerShadow_303_728"/>
</filter>
<filter id="filter2_f_303_728" x="0.318115" y="4.94556" width="203.379" height="161.201" filterUnits="userSpaceOnUse" color-interpolation-filters="sRGB">
<feFlood flood-opacity="0" result="BackgroundImageFix"/>
<feBlend mode="normal" in="SourceGraphic" in2="BackgroundImageFix" result="shape"/>
<feGaussianBlur stdDeviation="38.5" result="effect1_foregroundBlur_303_728"/>
</filter>
<filter id="filter3_i_303_728" x="105.29" y="85.5" width="19" height="24.5" filterUnits="userSpaceOnUse" color-interpolation-filters="sRGB">
<feFlood flood-opacity="0" result="BackgroundImageFix"/>
<feBlend mode="normal" in="SourceGraphic" in2="BackgroundImageFix" result="shape"/>
<feColorMatrix in="SourceAlpha" type="matrix" values="0 0 0 0 0 0 0 0 0 0 0 0 0 0 0 0 0 0 127 0" result="hardAlpha"/>
<feOffset dx="-2"/>
<feGaussianBlur stdDeviation="4.5"/>
<feComposite in2="hardAlpha" operator="arithmetic" k2="-1" k3="1"/>
<feColorMatrix type="matrix" values="0 0 0 0 1 0 0 0 0 1 0 0 0 0 1 0 0 0 0.5 0"/>
<feBlend mode="normal" in2="shape" result="effect1_innerShadow_303_728"/>
</filter>
<filter id="filter4_i_303_728" x="79.5" y="37.5" width="14.5" height="19" filterUnits="userSpaceOnUse" color-interpolation-filters="sRGB">
<feFlood flood-opacity="0" result="BackgroundImageFix"/>
<feBlend mode="normal" in="SourceGraphic" in2="BackgroundImageFix" result="shape"/>
<feColorMatrix in="SourceAlpha" type="matrix" values="0 0 0 0 0 0 0 0 0 0 0 0 0 0 0 0 0 0 127 0" result="hardAlpha"/>
<feOffset dy="11"/>
<feGaussianBlur stdDeviation="5"/>
<feComposite in2="hardAlpha" operator="arithmetic" k2="-1" k3="1"/>
<feColorMatrix type="matrix" values="0 0 0 0 1 0 0 0 0 1 0 0 0 0 1 0 0 0 1 0"/>
<feBlend mode="normal" in2="shape" result="effect1_innerShadow_303_728"/>
</filter>
<filter id="filter5_i_303_728" x="69" y="46.5" width="66" height="49" filterUnits="userSpaceOnUse" color-interpolation-filters="sRGB">
<feFlood flood-opacity="0" result="BackgroundImageFix"/>
<feBlend mode="normal" in="SourceGraphic" in2="BackgroundImageFix" result="shape"/>
<feColorMatrix in="SourceAlpha" type="matrix" values="0 0 0 0 0 0 0 0 0 0 0 0 0 0 0 0 0 0 127 0" result="hardAlpha"/>
<feOffset dy="11"/>
<feGaussianBlur stdDeviation="5"/>
<feComposite in2="hardAlpha" operator="arithmetic" k2="-1" k3="1"/>
<feColorMatrix type="matrix" values="0 0 0 0 1 0 0 0 0 1 0 0 0 0 1 0 0 0 1 0"/>
<feBlend mode="normal" in2="shape" result="effect1_innerShadow_303_728"/>
</filter>
<filter id="filter6_i_303_728" x="98.5" y="30" width="44" height="36.5" filterUnits="userSpaceOnUse" color-interpolation-filters="sRGB">
<feFlood flood-opacity="0" result="BackgroundImageFix"/>
<feBlend mode="normal" in="SourceGraphic" in2="BackgroundImageFix" result="shape"/>
<feColorMatrix in="SourceAlpha" type="matrix" values="0 0 0 0 0 0 0 0 0 0 0 0 0 0 0 0 0 0 127 0" result="hardAlpha"/>
<feOffset dy="11"/>
<feGaussianBlur stdDeviation="5"/>
<feComposite in2="hardAlpha" operator="arithmetic" k2="-1" k3="1"/>
<feColorMatrix type="matrix" values="0 0 0 0 1 0 0 0 0 1 0 0 0 0 1 0 0 0 1 0"/>
<feBlend mode="normal" in2="shape" result="effect1_innerShadow_303_728"/>
</filter>
<filter id="filter7_i_303_728" x="83.7899" y="31.1802" width="24.2695" height="29.509" filterUnits="userSpaceOnUse" color-interpolation-filters="sRGB">
<feFlood flood-opacity="0" result="BackgroundImageFix"/>
<feBlend mode="normal" in="SourceGraphic" in2="BackgroundImageFix" result="shape"/>
<feColorMatrix in="SourceAlpha" type="matrix" values="0 0 0 0 0 0 0 0 0 0 0 0 0 0 0 0 0 0 127 0" result="hardAlpha"/>
<feOffset dy="4"/>
<feGaussianBlur stdDeviation="4"/>
<feComposite in2="hardAlpha" operator="arithmetic" k2="-1" k3="1"/>
<feColorMatrix type="matrix" values="0 0 0 0 1 0 0 0 0 1 0 0 0 0 1 0 0 0 0.55 0"/>
<feBlend mode="normal" in2="shape" result="effect1_innerShadow_303_728"/>
</filter>
<linearGradient id="paint0_linear_303_728" x1="113.688" y1="107.544" x2="130.106" y2="84.7064" gradientUnits="userSpaceOnUse">
<stop stop-color="#FF9900"/>
<stop offset="1" stop-color="#FFEE94"/>
</linearGradient>
<linearGradient id="paint1_linear_303_728" x1="80.4223" y1="45.6964" x2="95.5118" y2="34.9041" gradientUnits="userSpaceOnUse">
<stop stop-color="white" stop-opacity="0.65"/>
<stop offset="1" stop-color="white" stop-opacity="0.58"/>
</linearGradient>
<linearGradient id="paint2_linear_303_728" x1="73.1979" y1="82.0179" x2="139.56" y2="32.1619" gradientUnits="userSpaceOnUse">
<stop stop-color="white" stop-opacity="0.65"/>
<stop offset="1" stop-color="white" stop-opacity="0.58"/>
</linearGradient>
<linearGradient id="paint3_linear_303_728" x1="139.701" y1="54.1339" x2="94.8549" y2="21.0779" gradientUnits="userSpaceOnUse">
<stop stop-color="white" stop-opacity="0.65"/>
<stop offset="1" stop-color="white" stop-opacity="0.58"/>
</linearGradient>
<linearGradient id="paint4_linear_303_728" x1="109.405" y1="26.7298" x2="99.5931" y2="86.1418" gradientUnits="userSpaceOnUse">
<stop stop-color="#FFEE94"/>
<stop offset="1" stop-color="#FF9900"/>
</linearGradient>
</defs>
</svg>
